/* XPM */
static char * icon24x24_xpm[] = {
"24 24 374 2",
"  	c None",
". 	c #9791D6",
"+ 	c #6761B6",
"@ 	c #6761B7",
"# 	c #6762B7",
"$ 	c #6862BA",
"% 	c #6862BB",
"& 	c #6962BC",
"* 	c #6962BD",
"= 	c #6962BE",
"- 	c #6962BF",
"; 	c #6A62C1",
"> 	c #6A62C2",
", 	c #6B62C4",
"' 	c #6B63C5",
") 	c #6D63C6",
"! 	c #6D63C8",
"~ 	c #6E63C9",
"{ 	c #6E63CA",
"] 	c #6E63CB",
"^ 	c #958FD1",
"/ 	c #404081",
"( 	c #404082",
"_ 	c #414083",
": 	c #414084",
"< 	c #424186",
"[ 	c #424187",
"} 	c #44428A",
"| 	c #4B468E",
"1 	c #514992",
"2 	c #4F4A94",
"3 	c #4D4A97",
"4 	c #4C4998",
"5 	c #4E499A",
"6 	c #4D479A",
"7 	c #4A449A",
"8 	c #4A449D",
"9 	c #4B459F",
"0 	c #4C45A1",
"a 	c #4D45A3",
"b 	c #4D45A6",
"c 	c #4E46A7",
"d 	c #4F46AA",
"e 	c #625DAA",
"f 	c #414085",
"g 	c #434287",
"h 	c #5A5495",
"i 	c #7C70A9",
"j 	c #9280B6",
"k 	c #8D7DB8",
"l 	c #7D74B6",
"m 	c #7370B5",
"n 	c #6D6CB3",
"o 	c #6C69B0",
"p 	c #6561AA",
"q 	c #5955A3",
"r 	c #504CA0",
"s 	c #4C469F",
"t 	c #4E45A6",
"u 	c #4E46A8",
"v 	c #484589",
"w 	c #7D70A6",
"x 	c #B6A6CB",
"y 	c #C0B6D9",
"z 	c #AEAAD4",
"A 	c #9493CA",
"B 	c #7979BD",
"C 	c #7272B8",
"D 	c #6F6EB5",
"E 	c #6A6AB1",
"F 	c #6565AD",
"G 	c #6161A8",
"H 	c #5A59A3",
"I 	c #524F9F",
"J 	c #4D47A0",
"K 	c #625DAC",
"L 	c #6762B8",
"M 	c #414184",
"N 	c #8B7EAE",
"O 	c #D1C2DC",
"P 	c #DAD6EA",
"Q 	c #C6C5E3",
"R 	c #B0AFD8",
"S 	c #9696CC",
"T 	c #7A7ABD",
"U 	c #6665AD",
"V 	c #6161A9",
"W 	c #5C5CA4",
"X 	c #57569F",
"Y 	c #51519A",
"Z 	c #4C4A98",
"` 	c #4B459E",
" .	c #7F6EA6",
"..	c #CEBAD7",
"+.	c #DBD6EA",
"@.	c #DBDAED",
"#.	c #C9C9E5",
"$.	c #B0B0D8",
"%.	c #9695CB",
"&.	c #7B7ABC",
"*.	c #6B6BB1",
"=.	c #56569F",
"-.	c #4C4B94",
";.	c #46468F",
">.	c #444190",
",.	c #49429E",
"'.	c #4F46A9",
").	c #5047AB",
"!.	c #424188",
"~.	c #605495",
"{.	c #B497C2",
"].	c #C6BADB",
"^.	c #BEBDDF",
"/.	c #A8A8D4",
"(.	c #8E8DC6",
"_.	c #7473B7",
":.	c #6666AD",
"<.	c #4C4C94",
"[.	c #41418A",
"}.	c #3B3B85",
"|.	c #3D3A8C",
"1.	c #4B43A3",
"2.	c #46438B",
"3.	c #8C6EA7",
"4.	c #B69CC9",
"5.	c #A9A6D4",
"6.	c #A7A6D3",
"7.	c #9696CA",
"8.	c #7F7EBD",
"9.	c #6A69B0",
"0.	c #41408A",
"a.	c #3C3B85",
"b.	c #363580",
"c.	c #32317D",
"d.	c #403A93",
"e.	c #4F46AB",
"f.	c #574D93",
"g.	c #A77DB3",
"h.	c #9789C3",
"i.	c #9191C9",
"j.	c #9796CB",
"k.	c #6C6CB1",
"l.	c #57579F",
"m.	c #30307B",
"n.	c #2B2A76",
"o.	c #312E80",
"p.	c #4B43A6",
"q.	c #625DAD",
"r.	c #705C9D",
"s.	c #AC8BBE",
"t.	c #868BC7",
"u.	c #858EC8",
"v.	c #8890C8",
"w.	c #888FC8",
"x.	c #838BC5",
"y.	c #7D85C0",
"z.	c #777FBB",
"A.	c #757DB9",
"B.	c #737AB6",
"C.	c #7078B3",
"D.	c #6E75B0",
"E.	c #6C72AE",
"F.	c #6970AB",
"G.	c #676DA8",
"H.	c #646AA5",
"I.	c #6268A2",
"J.	c #5F65A0",
"K.	c #5D629D",
"L.	c #5D619D",
"M.	c #5D59AE",
"N.	c #8165A3",
"O.	c #A688BE",
"P.	c #7D82C1",
"Q.	c #797FC0",
"R.	c #777DBD",
"S.	c #757ABA",
"T.	c #7177B8",
"U.	c #6F74B4",
"V.	c #6C71B2",
"W.	c #686DAE",
"X.	c #656AAA",
"Y.	c #6266A7",
"Z.	c #5E63A3",
"`.	c #5B5FA0",
" +	c #585B9C",
".+	c #545898",
"++	c #505494",
"@+	c #4D5091",
"#+	c #4A4D8D",
"$+	c #474A8A",
"%+	c #454889",
"&+	c #4D489F",
"*+	c #635DAD",
"=+	c #8667A5",
"-+	c #A389BF",
";+	c #7C85C3",
">+	c #7A83C1",
",+	c #7881BF",
"'+	c #767EBC",
")+	c #747CBA",
"!+	c #727AB7",
"~+	c #6F77B5",
"{+	c #6D75B2",
"]+	c #6B72AF",
"^+	c #6970AC",
"/+	c #676DA9",
"(+	c #646BA7",
"_+	c #6268A4",
":+	c #5F65A1",
"<+	c #5D639E",
"[+	c #5A609B",
"}+	c #585D98",
"|+	c #565B96",
"1+	c #545994",
"2+	c #534FA2",
"3+	c #635DAE",
"4+	c #8767A6",
"5+	c #A389BE",
"6+	c #7B83C1",
"7+	c #767FBD",
"8+	c #727AB8",
"9+	c #7078B5",
"0+	c #6B73B0",
"a+	c #666DAA",
"b+	c #646AA7",
"c+	c #5F65A2",
"d+	c #5C639F",
"e+	c #5B609C",
"f+	c #595E99",
"g+	c #525792",
"h+	c #524FA1",
"i+	c #635FAE",
"j+	c #8265A7",
"k+	c #A283BA",
"l+	c #7679BA",
"m+	c #7076B7",
"n+	c #6D73B4",
"o+	c #6A6FB1",
"p+	c #666CAD",
"q+	c #6368AA",
"r+	c #6065A6",
"s+	c #5C61A2",
"t+	c #595D9F",
"u+	c #565A9B",
"v+	c #525698",
"w+	c #4E5394",
"x+	c #4B4F91",
"y+	c #484C8D",
"z+	c #424586",
"A+	c #3F4283",
"B+	c #3C3F80",
"C+	c #4A459C",
"D+	c #635FAF",
"E+	c #725DA4",
"F+	c #A586BB",
"G+	c #797EBC",
"H+	c #727BB9",
"I+	c #6F78B6",
"J+	c #6D75B3",
"K+	c #6B73B1",
"L+	c #6870AE",
"M+	c #666EAB",
"N+	c #636AA8",
"O+	c #6168A5",
"P+	c #5E65A2",
"Q+	c #5C62A0",
"R+	c #5A609D",
"S+	c #585E9A",
"T+	c #555B97",
"U+	c #535995",
"V+	c #525793",
"W+	c #4F5590",
"X+	c #4D538E",
"Y+	c #505592",
"Z+	c #5B57AE",
"`+	c #6A62C4",
" @	c #5B4F9F",
".@	c #A078B2",
"+@	c #796AAD",
"@@	c #4C4C95",
"#@	c #47468F",
"$@	c #262570",
"%@	c #21206C",
"&@	c #1C1B68",
"*@	c #181763",
"=@	c #13135F",
"-@	c #0F0F5B",
";@	c #0B0B58",
">@	c #1C186D",
",@	c #4A40A8",
"'@	c #4C459D",
")@	c #8668AC",
"!@	c #9173AE",
"~@	c #5B58A0",
"{@	c #262571",
"]@	c #13125F",
"^@	c #0F0F5C",
"/@	c #0B0A58",
"(@	c #312A88",
"_@	c #5247B2",
":@	c #645FAF",
"<@	c #4A449F",
"[@	c #6152A5",
"}@	c #9372B0",
"|@	c #7061A4",
"1@	c #171764",
"2@	c #131360",
"3@	c #0F0E5B",
"4@	c #080754",
"5@	c #1D186F",
"6@	c #483EA6",
"7@	c #5348B4",
"8@	c #715CAA",
"9@	c #8A6DAC",
"0@	c #5D5398",
"a@	c #161266",
"b@	c #3D3598",
"c@	c #5449B6",
"d@	c #645FB0",
"e@	c #5047A4",
"f@	c #735EAC",
"g@	c #7E67A8",
"h@	c #574C92",
"i@	c #373681",
"j@	c #090755",
"k@	c #181469",
"l@	c #3A3295",
"m@	c #5247B3",
"n@	c #5449B5",
"o@	c #5449B7",
"p@	c #645FB1",
"q@	c #4D46A6",
"r@	c #4E46A6",
"s@	c #4F46A7",
"t@	c #6958AC",
"u@	c #7661A7",
"v@	c #5C4E93",
"w@	c #3A357E",
"x@	c #282671",
"y@	c #171763",
"z@	c #0C0C59",
"A@	c #110F5F",
"B@	c #252079",
"C@	c #42399E",
"D@	c #5449B8",
"E@	c #584CAB",
"F@	c #6656AA",
"G@	c #6253A0",
"H@	c #50448E",
"I@	c #39327E",
"J@	c #272372",
"K@	c #1D1B6B",
"L@	c #1F1C6C",
"M@	c #231F72",
"N@	c #2D2782",
"O@	c #3F3699",
"P@	c #4E43AD",
"Q@	c #5348B5",
"R@	c #5549B8",
"S@	c #5549B9",
"T@	c #645FB3",
"U@	c #5047AA",
"V@	c #5047AC",
"W@	c #5349AD",
"X@	c #574BAD",
"Y@	c #5147A9",
"Z@	c #4C43A7",
"`@	c #4A40A5",
" #	c #4B42A8",
".#	c #4E44AB",
"+#	c #5146B1",
"@#	c #5348B3",
"##	c #665FB3",
"$#	c #8F8DC4",
". + + @ # $ $ % & * * = - ; > , , ' ) ! ~ { ] ^ ",
"+ / ( _ : < [ } | 1 2 3 4 5 6 7 8 9 0 a b c d e ",
"+ ( ( _ f g h i j k l m n o p q r s 0 a t u d e ",
"@ _ _ : v w x y z A B C D E F G H I J a t u d K ",
"L : M v N O P Q R S T D E U V W X Y Z ` b u d K ",
"$ < <  ...+.@.#.$.%.&.*.F V W =.Y -.;.>.,.'.).K ",
"$ !.~.{.].Q #.^./.(._.:.V W X Y <.;.[.}.|.1.).K ",
"% 2.3.4.5.R R 6.7.8.9.V W X Y -.;.0.a.b.c.d.e.K ",
"& f.g.h.i.j.j.(.8.k.V W l.Y -.;.0.a.b.m.n.o.p.q.",
"* r.s.t.u.v.w.x.y.z.A.B.C.D.E.F.G.H.I.J.K.L.M.q.",
"* N.O.P.Q.R.S.T.U.V.W.X.Y.Z.`. +.+++@+#+$+%+&+*+",
"= =+-+;+>+,+'+)+!+~+{+]+^+/+(+_+:+<+[+}+|+1+2+3+",
"- 4+5+6+,+7+)+8+9+{+0+^+a+b+_+c+d+e+f+|+1+g+h+i+",
"; j+k+l+m+n+o+p+q+r+s+t+u+v+w+x+y+%+z+A+B+B+C+D+",
"> E+F+G+H+I+J+K+L+M+N+O+P+Q+R+S+T+U+V+W+X+Y+Z+D+",
"`+ @.@+@W =.Y @@#@0.}.b.m.n.$@%@&@*@=@-@;@>@,@D+",
", '@)@!@~@Y @@;.0.}.b.m.n.{@%@&@*@]@^@;@/@(@_@:@",
"' <@[@}@|@<.;.0.}.b.m.n.$@%@&@1@2@3@/@4@5@6@7@:@",
") 0 0 8@9@0@0.}.b.m.n.{@%@&@*@=@^@;@4@a@b@7@c@d@",
"! a a e@f@g@h@i@m.n.$@%@&@*@=@-@;@j@k@l@m@n@o@p@",
"~ q@b r@s@t@u@v@w@x@%@&@y@=@-@z@A@B@C@m@n@c@D@p@",
"] u u u '.'.E@F@G@H@I@J@K@L@M@N@O@P@7@Q@c@R@S@T@",
"] d d d d U@).V@W@X@Y@Z@`@ #.#+#@#7@c@o@D@S@S@##",
"^ e e e e K K q.q.q.*+3+3+D+D+D+D+d@d@p@p@T@##$#"};
